HIERARCHY
ROOT Hips
{
  OFFSET 0.000000 0.000000 0.000000
  CHANNELS 6 Xposition Yposition Zposition Zrotation Yrotation Xrotation
  JOINT Spine
  {
    OFFSET -0.000883 2.120903 -0.028059
    CHANNELS 3 Zrotation Yrotation Xrotation
    JOINT Spine1
    {
      OFFSET -0.002865 2.096658 0.129739
      CHANNELS 3 Zrotation Yrotation Xrotation
      JOINT Spine2
      {
        OFFSET -0.000072 2.101496 0.140380
        CHANNELS 3 Zrotation Yrotation Xrotation
        JOINT Neck
        {
          OFFSET 0.073278 1.835262 0.072900
          CHANNELS 3 Zrotation Yrotation Xrotation
          JOINT Head
          {
            OFFSET -0.033980 1.851628 -0.175733
            CHANNELS 3 Zrotation Yrotation Xrotation
            End Site
            {
              OFFSET 0 0 0
            }
          }
        }
        JOINT LeftShoulder
        {
          OFFSET 3.021134 1.180177 0.406022
          CHANNELS 3 Zrotation Yrotation Xrotation
          JOINT LeftArm
          {
            OFFSET 4.585380 -0.000000 -0.000000
            CHANNELS 3 Zrotation Yrotation Xrotation
            JOINT LeftForeArm
            {
              OFFSET 2.689350 -0.000000 -0.000000
              CHANNELS 3 Zrotation Yrotation Xrotation
              JOINT LeftHand
              {
                OFFSET 0.585058 -0.000000 -0.000000
                CHANNELS 3 Zrotation Yrotation Xrotation
                JOINT LeftHandIndex1
                {
                  OFFSET 0.471689 -0.000000 -0.000000
                  CHANNELS 3 Zrotation Yrotation Xrotation
                  End Site
                  {
                    OFFSET 0 0 0
                  }
                }
              }
            }
          }
        }
        JOINT RightShoulder
        {
          OFFSET -2.950738 1.188427 0.314298
          CHANNELS 3 Zrotation Yrotation Xrotation
          JOINT RightArm
          {
            OFFSET -4.474500 -0.000000 -0.000000
            CHANNELS 3 Zrotation Yrotation Xrotation
            JOINT RightForeArm
            {
              OFFSET -2.938960 -0.000000 -0.000000
              CHANNELS 3 Zrotation Yrotation Xrotation
              JOINT RightHand
              {
                OFFSET -0.405092 -0.000000 -0.000000
                CHANNELS 3 Zrotation Yrotation Xrotation
                JOINT RightHandIndex1
                {
                  OFFSET -0.326596 -0.000000 -0.000000
                  CHANNELS 3 Zrotation Yrotation Xrotation
                  End Site
                  {
                    OFFSET 0 0 0
                  }
                }
              }
            }
          }
        }
      }
    }
  }
  JOINT LeftUpLeg
  {
    OFFSET 2.251771 -6.186694 0.000000
    CHANNELS 3 Zrotation Yrotation Xrotation
    JOINT LeftLeg
    {
      OFFSET 2.266012 -6.225823 0.000000
      CHANNELS 3 Zrotation Yrotation Xrotation
      JOINT LeftFoot
      {
        OFFSET 0.237014 -0.651191 2.158476
        CHANNELS 3 Zrotation Yrotation Xrotation
        JOINT LeftToeBase
        {
          OFFSET 0.000000 -0.000000 1.129490
          CHANNELS 3 Zrotation Yrotation Xrotation
          End Site
          {
            OFFSET 0 0 0
          }
        }
      }
    }
  }
  JOINT RightUpLeg
  {
    OFFSET -2.280357 -6.265234 0.000000
    CHANNELS 3 Zrotation Yrotation Xrotation
    JOINT RightLeg
    {
      OFFSET -2.254897 -6.195283 0.000000
      CHANNELS 3 Zrotation Yrotation Xrotation
      JOINT RightFoot
      {
        OFFSET -0.283752 -0.779600 2.231370
        CHANNELS 3 Zrotation Yrotation Xrotation
        JOINT RightToeBase
        {
          OFFSET -0.000000 -0.000000 1.178990
          CHANNELS 3 Zrotation Yrotation Xrotation
          End Site
          {
            OFFSET 0 0 0
          }
        }
      }
    }
  }
}
MOTION
Frames: 5
Frame Time: 0.00833333
0.975502 15.746600 6.598770 -3.129980 -4.364910 9.268710 -12.919000 -12.897900 -10.632900 0.000000 0.000000 22.214800 22.691500 0.000000 -18.366300 0.000000 0.000000 -1.375380 16.587500 13.499800 -9.431380 0.000000 0.000000 17.632800 -24.846400 0.000000 -12.997600 0.000000 0.000000 -3.097340 3.614100 -0.879997 -6.596580 1.021100 -1.264630 -8.321040 -0.983854 -0.808684 -5.017010 9.029210 3.324650 -10.439400 -3.073650 2.475540 14.805200 -0.000000 0.000000 0.000000 80.841800 6.178230 -45.488600 0.000000 0.000000 31.301900 13.700800 0.000000 -5.873300 0.000000 0.000000 7.125020 -0.000000 0.000000 0.000000 -76.031000 -7.600570 -41.177300 0.000000 0.000000 21.145900 -7.790470 0.000000 -10.258500 0.000000 0.000000 7.125020
0.972050 15.745900 6.596410 -3.135610 -4.348070 9.308130 -12.880400 -12.966000 -10.717500 0.000000 0.000000 22.267500 22.738100 0.000000 -18.394300 0.000000 0.000000 -1.333910 16.589100 13.533500 -9.440700 0.000000 0.000000 17.566100 -24.850100 0.000000 -13.014700 0.000000 0.000000 -2.904900 3.618940 -0.871822 -6.605070 1.012090 -1.255120 -8.295380 -0.996387 -0.803687 -4.984710 9.032720 3.313790 -10.470500 -3.075030 2.464990 14.779100 -0.000000 0.000000 0.000000 80.976000 6.078010 -45.385300 0.000000 0.000000 31.317900 13.699500 0.000000 -5.956020 0.000000 0.000000 7.125020 -0.000000 0.000000 0.000000 -75.796300 -7.798680 -41.133800 0.000000 0.000000 21.230500 -8.555820 0.000000 -9.759450 0.000000 0.000000 7.125020
0.968799 15.746300 6.595730 -3.177790 -4.323260 9.326100 -12.809900 -12.975600 -10.723100 0.000000 0.000000 22.227900 22.723700 0.000000 -18.379200 0.000000 0.000000 -1.301390 16.643400 13.567800 -9.468740 0.000000 0.000000 17.590700 -24.890800 0.000000 -13.109000 0.000000 0.000000 -2.595420 3.642640 -0.878833 -6.533940 1.033330 -1.260710 -8.309970 -0.985893 -0.808007 -5.040720 9.025130 3.303450 -10.471800 -3.076090 2.457030 14.763200 -0.000000 0.000000 0.000000 81.035800 6.112250 -45.425200 0.000000 0.000000 31.453000 13.725100 0.000000 -5.923910 0.000000 0.000000 7.125020 -0.000000 0.000000 0.000000 -75.531800 -7.898840 -41.242200 0.000000 0.000000 21.136400 -8.196140 0.000000 -10.172300 0.000000 0.000000 7.125020
0.966338 15.749300 6.594820 -3.158390 -4.315470 9.348910 -12.813600 -13.005300 -10.742800 0.000000 0.000000 22.203500 22.752600 0.000000 -18.358300 0.000000 0.000000 -1.300910 16.629200 13.543700 -9.514880 0.000000 0.000000 17.598700 -24.889400 0.000000 -13.015000 0.000000 0.000000 -2.888410 3.619930 -0.880107 -6.520210 1.023670 -1.261950 -8.289000 -0.983404 -0.807192 -5.025480 9.020200 3.292290 -10.478200 -3.072430 2.446790 14.729400 0.000000 -0.000000 0.000000 81.132200 6.067520 -45.379200 0.000000 0.000000 31.506700 13.718200 0.000000 -5.967300 0.000000 0.000000 7.125020 0.000000 -0.000000 0.000000 -75.349300 -8.023990 -41.232500 0.000000 0.000000 21.154000 -8.218520 0.000000 -10.177000 0.000000 0.000000 7.125020
0.963436 15.750500 6.593610 -3.164970 -4.307140 9.374450 -12.784700 -13.024300 -10.760300 0.000000 0.000000 22.167900 22.768500 0.000000 -18.332400 0.000000 0.000000 -1.301530 16.641300 13.550600 -9.560180 0.000000 0.000000 17.619200 -24.900000 0.000000 -13.019800 0.000000 0.000000 -2.868390 3.614700 -0.881746 -6.491300 1.025810 -1.262810 -8.278300 -0.977887 -0.807173 -5.030040 9.017870 3.282900 -10.487400 -3.070960 2.438080 14.702000 -0.000000 0.000000 0.000000 81.216800 6.048000 -45.355900 0.000000 0.000000 31.580800 13.721500 0.000000 -5.977710 0.000000 0.000000 7.125020 -0.000000 0.000000 0.000000 -75.190500 -8.083870 -41.253600 0.000000 0.000000 21.176800 -8.248990 0.000000 -10.230900 0.000000 0.000000 7.125020
